<svg xmlns="http://www.w3.org/2000/svg" width="20" height="20" viewBox="0 0 20 20">
  <path fill="#4C4D4E" fill-rule="evenodd" d="M17.083 3.333a1.255 1.255 0 0 1 .989.485 1.258 1.258 0 0 1 .261.765v10.834c0 .69-.56 1.25-1.25 1.25H2.917c-.69 0-1.25-.56-1.25-1.25V4.583c0-.188.041-.366.116-.526l.017-.035c.01-.022.022-.043.034-.064l-.051.099a1.247 1.247 0 0 1 .42-.5l.015-.01a1.245 1.245 0 0 1 .699-.214h14.166zm0 1.777L10 11.602 2.916 5.114v10.303h14.167V5.11zm-1.284-.527H4.195l5.804 5.25 5.8-5.25z"/>
</svg>

