<?xml version="1.0" encoding="UTF-8"?>
<svg width="24px" height="24px" viewBox="0 0 24 24" version="1.1" xmlns="http://www.w3.org/2000/svg" xmlns:xlink="http://www.w3.org/1999/xlink">
    <title>MP/Icon/verify</title>
    <g id="MP/Icon/verify" stroke="none" stroke-width="1" fill="none" fill-rule="evenodd">
        <path d="M12,2 C17.5228475,2 22,6.4771525 22,12 C22,17.5228475 17.5228475,22 12,22 C6.4771525,22 2,17.5228475 2,12 C2,6.4771525 6.4771525,2 12,2 Z M12,3.5 C7.30557963,3.5 3.5,7.30557963 3.5,12 C3.5,16.6944204 7.30557963,20.5 12,20.5 C16.6944204,20.5 20.5,16.6944204 20.5,12 C20.5,7.30557963 16.6944204,3.5 12,3.5 Z M17.2129587,8.194511 L17.3999189,8.37852709 C17.5081829,8.48508632 17.5040344,8.66162043 17.4015054,8.76218256 L10.5208419,15.5108555 C10.4134541,15.6161834 10.2416009,15.6141037 10.1321342,15.5011947 L7.09021316,12.3636168 C6.98292365,12.2529534 6.96694742,12.066963 7.06654143,11.9319062 L7.3043743,11.6093873 C7.39859028,11.4816235 7.56984674,11.4505238 7.69873119,11.5489719 L10.1028483,13.3853509 C10.2264297,13.4797482 10.4211885,13.4777493 10.5341764,13.38394 L16.809365,8.17390078 C16.9239995,8.07872426 17.1074009,8.09061551 17.2129587,8.194511 Z" id="形状结合" fill="#4C4D4E"></path>
    </g>
</svg>