<?xml version="1.0" encoding="UTF-8"?>
<svg width="24px" height="24px" viewBox="0 0 24 24" version="1.1" xmlns="http://www.w3.org/2000/svg" xmlns:xlink="http://www.w3.org/1999/xlink">
    <title>MP/Icon/shutdown</title>
    <g id="MP/Icon/shutdown" stroke="none" stroke-width="1" fill="none" fill-rule="evenodd">
        <path d="M15.0004805,4.42799995 C18.3551058,5.6525337 20.75,8.87158809 20.75,12.65 C20.75,17.4824916 16.8324916,21.4 12,21.4 C7.16750844,21.4 3.25,17.4824916 3.25,12.65 C3.25,8.87120961 5.64537403,5.6518888 9.00052764,4.42763202 L8.99998323,6.04787022 C6.49296107,7.18888979 4.75,9.71589971 4.75,12.65 C4.75,16.6540644 7.99593556,19.9 12,19.9 C16.0040644,19.9 19.25,16.6540644 19.25,12.65 C19.25,9.71629035 17.507503,7.18956268 15.0010181,6.04832604 L15.0004805,4.42799995 Z M12.75,2.65 L12.75,10.65 L11.25,10.65 L11.25,2.65 L12.75,2.65 Z" id="形状结合" fill="#4C4D4E"></path>
    </g>
</svg>