<?xml version="1.0" encoding="UTF-8"?>
<svg width="24px" height="24px" viewBox="0 0 24 24" version="1.1" xmlns="http://www.w3.org/2000/svg" xmlns:xlink="http://www.w3.org/1999/xlink">
    <title>MP/Icon/Settings</title>
    <g id="MP/Icon/Settings" stroke="none" stroke-width="1" fill="none" fill-rule="evenodd">
        <path d="M12.7192236,2 C13.1780912,2 13.5780743,2.31229737 13.6893661,2.75746437 L14.2079399,4.83027805 C14.6607363,4.96955376 15.0952599,5.15054455 15.5070254,5.36876504 L17.3408974,4.26997816 C17.7343732,4.03389271 18.2380315,4.09589589 18.5624999,4.42036431 L19.5796357,5.43750007 C19.9041041,5.76196849 19.9661073,6.26562685 19.7300218,6.6591026 L18.631235,8.49297456 C18.8494555,8.9047401 19.0304462,9.33926374 19.169722,9.7920601 L21.2425356,10.3106339 C21.6877026,10.4219257 22,10.8219088 22,11.2807764 L22,12.7192236 C22,13.1780912 21.6877026,13.5780743 21.2425356,13.6893661 L19.169722,14.2079399 C19.0304462,14.6607363 18.8494555,15.0952599 18.631235,15.5070254 L19.7300218,17.3408974 C19.9661073,17.7343732 19.9041041,18.2380315 19.5796357,18.5624999 L18.5624999,19.5796357 C18.2380315,19.9041041 17.7343732,19.9661073 17.3408974,19.7300218 L15.5070254,18.631235 C15.0952599,18.8494555 14.6607363,19.0304462 14.2079399,19.169722 L13.6893661,21.2425356 C13.5780743,21.6877026 13.1780912,22 12.7192236,22 L11.2807764,22 C10.8219088,22 10.4219257,21.6877026 10.3106339,21.2425356 L9.7920601,19.169722 C9.33926374,19.0304462 8.9047401,18.8494555 8.49297456,18.631235 L6.6591026,19.7300218 C6.26562685,19.9661073 5.76196849,19.9041041 5.43750007,19.5796357 L4.42036431,18.5624999 C4.09589589,18.2380315 4.03389271,17.7343732 4.26997816,17.3408974 L5.36876504,15.5070254 C5.15054455,15.0952599 4.96955376,14.6607363 4.83027805,14.2079399 L2.75746437,13.6893661 C2.31229737,13.5780743 2,13.1780912 2,12.7192236 L2,11.2807764 C2,10.8219088 2.31229737,10.4219257 2.75746437,10.3106339 L4.83027805,9.7920601 C4.96955376,9.33926374 5.15054455,8.9047401 5.36876504,8.49297456 L4.26997816,6.6591026 C4.03389271,6.26562685 4.09589589,5.76196849 4.42036431,5.43750007 L5.43750007,4.42036431 C5.76196849,4.09589589 6.26562685,4.03389271 6.6591026,4.26997816 L8.49297456,5.36876504 C8.9047401,5.15054455 9.33926374,4.96955376 9.7920601,4.83027805 L10.3106339,2.75746437 C10.4219257,2.31229737 10.8219088,2 11.2807764,2 L12.7192236,2 Z M12.329,3.5 L11.67,3.5 L11.0418445,6.01521203 L10.2330551,6.26398771 C9.96370083,6.34683844 9.70105121,6.44860859 9.44678553,6.56839133 L9.1953767,6.69414469 L8.44779569,7.09033495 L6.222,5.757 L5.756,6.223 L7.09033495,8.44779569 L6.69414469,9.1953767 C6.5624543,9.44386649 6.44847424,9.70129999 6.35311133,9.96599791 L6.26398771,10.2330551 L6.01521203,11.0418445 L3.5,11.67 L3.5,12.329 L6.01521203,12.9581555 L6.26398771,13.7669449 C6.34683844,14.0362992 6.44860859,14.2989488 6.56839133,14.5532145 L6.69414469,14.8046233 L7.09033495,15.5522043 L5.757,17.777 L6.223,18.243 L8.44779569,16.9096651 L9.1953767,17.3058553 C9.44386649,17.4375457 9.70129999,17.5515258 9.96599791,17.6468887 L10.2330551,17.7360123 L11.0418445,17.984788 L11.671,20.5 L12.328,20.5 L12.9581555,17.984788 L13.7669449,17.7360123 C14.0362992,17.6531616 14.2989488,17.5513914 14.5532145,17.4316087 L14.8046233,17.3058553 L15.5522043,16.9096651 L17.777,18.242 L18.243,17.776 L16.9096651,15.5522043 L17.3058553,14.8046233 C17.4375457,14.5561335 17.5515258,14.2987 17.6468887,14.0340021 L17.7360123,13.7669449 L17.984788,12.9581555 L20.5,12.328 L20.5,11.671 L17.984788,11.0418445 L17.7360123,10.2330551 C17.6531616,9.96370083 17.5513914,9.70105121 17.4316087,9.44678553 L17.3058553,9.1953767 L16.9096651,8.44779569 L18.242,6.222 L17.776,5.756 L15.5522043,7.09033495 L14.8046233,6.69414469 C14.5561335,6.5624543 14.2987,6.44847424 14.0340021,6.35311133 L13.7669449,6.26398771 L12.9581555,6.01521203 L12.329,3.5 Z M12,8 C14.209139,8 16,9.790861 16,12 C16,14.209139 14.209139,16 12,16 C9.790861,16 8,14.209139 8,12 C8,9.790861 9.790861,8 12,8 Z M12,9.5 C10.6192881,9.5 9.5,10.6192881 9.5,12 C9.5,13.3807119 10.6192881,14.5 12,14.5 C13.3807119,14.5 14.5,13.3807119 14.5,12 C14.5,10.6192881 13.3807119,9.5 12,9.5 Z" id="形状结合" fill="#4C4D4E"></path>
    </g>
</svg>